<svg xmlns="http://www.w3.org/2000/svg" viewBox="0 0 512 512">
  <defs>
    <linearGradient id="bg" x1="0%" x2="100%" y1="0%" y2="100%">
      <stop offset="0%" stop-color="#171d1f" />
      <stop offset="100%" stop-color="#4d2e17" />
    </linearGradient>
    <linearGradient id="accent" x1="0%" x2="100%" y1="0%" y2="100%">
      <stop offset="0%" stop-color="#f4cf90" />
      <stop offset="100%" stop-color="#ee7d4f" />
    </linearGradient>
  </defs>
  <rect width="512" height="512" rx="112" fill="url(#bg)" />
  <path
    d="M120 146h272c22 0 40 18 40 40v140c0 22-18 40-40 40H120c-22 0-40-18-40-40V186c0-22 18-40 40-40Z"
    fill="#0f1214"
    stroke="url(#accent)"
    stroke-width="18"
  />
  <path
    d="M158 190h196c8 0 14 6 14 14v104c0 8-6 14-14 14H158c-8 0-14-6-14-14V204c0-8 6-14 14-14Z"
    fill="#14191b"
  />
  <circle cx="376" cy="256" r="24" fill="url(#accent)" />
  <path
    d="M138 390h236"
    stroke="#f2ddba"
    stroke-linecap="round"
    stroke-width="18"
  />
  <path
    d="M168 214c32 24 52 54 60 90"
    fill="none"
    stroke="#f2ddba"
    stroke-linecap="round"
    stroke-width="18"
  />
  <path
    d="M244 214c-30 34-46 64-48 90"
    fill="none"
    stroke="#f08c5b"
    stroke-linecap="round"
    stroke-width="18"
  />
</svg>
